# xmcd
#
# Track frame offsets:
#	150
#	11645
#	24475
#	35032
#	54455
#	66387
#	78010
#	90350
#	102520
#	115865
#	129307
#	139752
#	155060
#	172815
#	186282
#	198007
#	214160
#	232207
#	245070
#
# Disc length: 3458 seconds
#
# Revision: 0
# Processed by: cddbd v1.5.1PL0 Copyright (c) Steve Scherf et al.
# Submitted via: dBpowerAMP V4.0
#
DISCID=050d8013
DTITLE=Various Artist - Vive Saint-Nicolas
DYEAR=1900
DGENRE=
TTITLE0=Les chansons de Saint-Nicolas
TTITLE1=Berceuse de Saint-Nicolas
TTITLE2=Merci Saint-Nicolas
TTITLE3=Trois petits enfants
TTITLE4=Si j'avais une moto
TTITLE5=Petit Garçon
TTITLE6=Lettre à Saint-Nicolas
TTITLE7=Le jouet extraordinaire
TTITLE8=Enfin te voilà
TTITLE9=Aujourd'hui d'autres jouets
TTITLE10=Petit Pierre et Saint-Nicolas
TTITLE11=Saint-Nicolas, n'oublies-tu pas?
TTITLE12=Chanson d'Emilie Jolie et le grand oiseau
TTITLE13=Papa pingouin
TTITLE14=Goldorak
TTITLE15=La chanson des Schtroumpfs
TTITLE16=Si tous les enfants du monde
TTITLE17=Ouvrez la cage aux oiseaux
TTITLE18=Les rois mages
EXTD=
EXTT0=
EXTT1=
EXTT2=
EXTT3=
EXTT4=
EXTT5=
EXTT6=
EXTT7=
EXTT8=
EXTT9=
EXTT10=
EXTT11=
EXTT12=
EXTT13=
EXTT14=
EXTT15=
EXTT16=
EXTT17=
EXTT18=
PLAYORDER=
